<?xml version="1.0" standalone="no"?>
<!DOCTYPE svg PUBLIC "-//W3C//DTD SVG 20010904//EN"
 "http://www.w3.org/TR/2001/REC-SVG-20010904/DTD/svg10.dtd">
<svg version="1.0" xmlns="http://www.w3.org/2000/svg"
 width="100.000000pt" height="100.000000pt" viewBox="0 0 100.000000 100.000000"
 preserveAspectRatio="xMidYMid meet">
<metadata>
Created by potrace 1.11, written by Peter Selinger 2001-2013
</metadata>
<g transform="translate(0.000000,100.000000) scale(0.100000,-0.100000)"
fill="#000000" stroke="none">
<path d="M537 926 c-32 -30 -67 -98 -67 -131 0 -14 -3 -25 -6 -25 -18 0 -116
80 -131 107 -9 17 -21 29 -26 26 -11 -7 -28 -51 -33 -87 -4 -35 -20 -47 -51
-41 -13 3 -34 7 -48 10 -31 7 -32 -7 -4 -46 l21 -30 -25 -19 c-14 -11 -31 -36
-37 -55 -10 -30 -9 -41 10 -80 15 -31 19 -49 12 -62 -19 -36 4 -102 42 -122
18 -10 21 -19 18 -52 -5 -45 16 -84 53 -101 14 -6 27 -23 30 -39 7 -32 45 -66
83 -76 14 -3 35 -17 46 -30 14 -15 37 -25 66 -29 41 -6 49 -3 78 24 17 16 42
32 55 36 37 9 75 43 81 74 4 16 19 34 36 44 35 20 53 60 48 106 -2 17 -1 32 3
32 14 0 58 53 61 73 2 12 0 37 -3 56 -5 24 -3 41 8 58 31 47 17 119 -27 143
-16 9 -18 15 -10 36 6 14 10 35 10 46 0 16 -3 18 -14 9 -8 -7 -36 -14 -63 -17
l-48 -4 -2 40 c-2 68 -9 75 -40 41 -16 -17 -56 -46 -90 -65 l-63 -35 0 35 c0
41 31 107 60 127 13 9 18 20 14 31 -8 22 -16 20 -47 -8z"/>
</g>
</svg>
